# xmcd
#
# Track frame offsets:
# 150
# 15662
# 31454
# 46999
# 61772
# 79265
# 94393
# 113310
# 127612
# 145464
# 159046
# 174683
# 189476
# 207235
#
# Disc length: 2967 seconds
#
#
# Revision: 0
# Processed by: cddbd v1.5.1PL0 Copyright (c) Steve Scherf et al.
# Submitted via: FreeRIP 2.942 
#
DISCID=ad0b950e
DTITLE=стекиос йафамтфидгс - г фыг лоу окг
DYEAR=1952
DGENRE=Country
TTITLE0=01 - опоиа йаи масаи
TTITLE1=02 - лиа пакиа истояиа
TTITLE2=03 - ены мтеятиа йаи йаглои
TTITLE3=04 - ецы ле тгм аниа лоу
TTITLE4=05 - бяаво бяаво том йагло лоу
TTITLE5=06 - г йоимымиа
TTITLE6=07 - паяапомо
TTITLE7=08 - г пяытг ацапг соу еилаи ецы
TTITLE8=09 - йаглос
TTITLE9=10 - исыс ауяио
TTITLE10=11 - то пекацо еимаи баху
TTITLE11=12 - ецы поте дем ацапы
TTITLE12=13 - упаявоум йаи йака паидиа
TTITLE13=14 - стис жалпяийес тгс цеяламиас
EXTD=
EXTT0=
EXTT1=
EXTT2=
EXTT3=
EXTT4=
EXTT5=
EXTT6=
EXTT7=
EXTT8=
EXTT9=
EXTT10=
EXTT11=
EXTT12=
EXTT13=
PLAYORDER=
